# AST/ASF file generated using VICON BodyLanguage
# -----------------------------------------------
:version 1.10
:name VICON
:units
  mass 1.0
  length 0.45
  angle deg
:documentation
   .ast/.asf automatically generated from VICON data using
   VICON BodyBuilder and BodyLanguage model FoxedUp or BRILLIANT.MOD
:root
   order TX TY TZ RX RY RZ
   axis XYZ
   position 0 0 0  
   orientation 0 0 0 
:bonedata
  begin
     id 1 
     name lhipjoint
     direction 0.577973 -0.728611 0.367523 
     length 2.48544 
     axis 0 0 0  XYZ
  end
  begin
     id 2 
     name lfemur
     direction 0.34202 -0.939693 0  
     length 7.1921  
     axis 0 0 20  XYZ
    dof rx ry rz
    limits (-160.0 20.0)
           (-70.0 70.0)
           (-60.0 70.0)
  end
  begin
     id 3 
     name ltibia
     direction 0.34202 -0.939693 0   
     length 7.71059   
     axis 0 0 20   XYZ
    dof rx
    limits (-10.0 170.0)
  end
  begin
     id 4 
     name lfoot
     direction 0.089538 -0.246004 0.965124   
     length 2.19909   
     axis -90 7.62852e-016 20   XYZ
    dof rx rz
    limits (-45.0 90.0)
           (-70.0 20.0)
  end
  begin
     id 5 
     name ltoes
     direction 1.53544e-011 -4.21829e-011 1   
     length 1.10116   
     axis -90 7.62852e-016 20   XYZ
    dof rx
    limits (-90.0 20.0)
  end
  begin
     id 6 
     name rhipjoint
     direction -0.554414 -0.743062 0.374812   
     length 2.4371  
     axis 0 0 0  XYZ 
  end
  begin
     id 7 
     name rfemur
     direction -0.34202 -0.939693 0   
     length 7.47254   
     axis 0 0 -20   XYZ
    dof rx ry rz
    limits (-160.0 20.0)
           (-70.0 70.0)
           (-70.0 60.0)
  end
  begin
     id 8 
     name rtibia
     direction -0.34202 -0.939693 0   
     length 7.65855   
     axis 0 0 -20   XYZ
    dof rx
    limits (-10.0 170.0)
 end
 begin
     id 9 
     name rfoot
     direction -0.133779 -0.367555 0.92033   
     length 2.43006  
     axis -90 -7.62852e-016 -20   XYZ
    dof rx rz
    limits (-45.0 90.0)
           (-20.0 70.0)
  end
  begin
     id 10 
     name rtoes
     direction -1.53563e-011 -4.21889e-011 1   
     length 1.19625   
     axis -90 -7.62852e-016 -20   XYZ
    dof rx
    limits (-90.0 20.0)
  end
  begin
     id 11 
     name lowerback
     direction 0.0249066 0.998043 -0.0573585   
     length 2.08485   
     axis 0 0 0   XYZ
    dof rx ry rz
    limits (-20.0 45.0)
           (-30.0 30.0)
           (-30.0 30.0)
  end
  begin
     id 12 
     name upperback
     direction 0.0237884 0.999673 0.00943178   
     length 2.08515   
     axis 0 0 0   XYZ
    dof rx ry rz
    limits (-20.0 45.0)
           (-30.0 30.0)
           (-30.0 30.0)
  end
  begin
     id 13 
     name thorax
     direction 0.0106671 0.999301 0.0358174   
     length 2.09037   
     axis 0 0 0   XYZ
    dof rx ry rz
    limits (-20.0 45.0)
           (-30.0 30.0)
           (-30.0 30.0)
  end
  begin
     id 14 
     name lowerneck
     direction -0.0580016 0.987052 0.149546   
     length 1.84454   
     axis 0 0 0   XYZ
    dof rx ry rz
    limits (-20.0 45.0)
           (-30.0 30.0)
           (-30.0 30.0)
  end
  begin
     id 15 
     name upperneck
     direction 0.079456 0.981963 -0.171567   
     length 1.88141   
     axis 0 0 0   XYZ
    dof rx ry rz
    limits (-20.0 45.0)
           (-30.0 30.0)
           (-30.0 30.0)
  end
  begin
     id 16
     name head
     direction 0.0262167 0.9967 -0.0768276  
     length 1.89541  
     axis 0 0 0   XYZ
    dof rx ry rz
    limits (-20.0 45.0)
           (-30.0 30.0)
           (-30.0 30.0)
  end
  begin
     id 17 
     name lclavicle
     direction 0.946135 0.322134 -0.0325326  
     length 3.949  
     axis 0 0 0   XYZ
    dof ry rz
    limits (-20.0 10.0)
           (0.0 20.0)
  end
  begin
     id 18 
     name lhumerus
     direction 1 -4.48964e-011 1.94005e-028   
     length 5.10995   
     axis 180 -30 -90   XYZ
    dof rx ry rz
    limits (-60.0 90.0)
           (-90.0 90.0)
           (-90.0 90.0)
  end
  begin
     id 19
     name lradius
     direction 1 -4.48976e-011 2.87852e-027   
     length 3.21207   
     axis 180 -30 -90   XYZ
    dof rx
    limits (-10.0 170.0)
  end
  begin
     id 20
     name lwrist
     direction 1 -4.48963e-011 1.9975e-027   
     length 1.60604   
     axis 2.96054e-016 90 90   XYZ
    dof ry
    limits (-180.0 0.0)
 end
  begin
     id 21 
     name lhand
     direction 1 -4.48919e-011 4.00227e-027   
     length 0.63349   
     axis -2.5488e-015 90 90   XYZ
    dof rx rz
    limits (-90.0 90.0)
           (-45.0 45.0)
  end
  begin
     id 22 
     name lfingers
     direction 1 -4.49037e-011 7.9652e-027   
     length 0.510736   
     axis -5.0975e-015 90 90   XYZ
    dof rx
    limits (0.0 90.0)
  end
  begin
     id 23
     name lthumb
     direction 0.707107 -6.34922e-011 0.707107   
     length 0.733318   
     axis -90 45 -4.48553e-014   XYZ
    dof rx rz
    limits (-45.0 45.0)
           (-45.0 45.0)
  end
  begin
     id 24 
     name rclavicle
     direction -0.940085 0.328911 -0.0897654   
     length 3.93848  
     axis 0 0 0   XYZ 
    dof ry rz
    limits (-10.0 20.0)
           (-20.0 0.0)
  end
  begin
     id 25 
     name rhumerus
     direction -1 -4.48958e-011 3.02044e-027  
     length 5.25109   
     axis 180 30 90   XYZ
    dof rx ry rz
    limits (-90.0 60.0)
           (-90.0 90.0)
           (-90.0 90.0)
  end
  begin
     id 26 
     name rradius
     direction -1 -4.4897e-011 9.78352e-028   
     length 3.28364   
     axis 180 30 90   XYZ
    dof rx
    limits (-10.0 170.0)
  end
  begin
     id 27 
     name rwrist
     direction -1 -4.48943e-011 1.99918e-027   
     length 1.64182   
     axis 2.96054e-016 -90 -90   XYZ
    dof ry
    limits (-180.0 0.0)
  end
  begin
     id 28
     name rhand
     direction -1 -4.49024e-011 3.98478e-027   
     length 0.599745   
     axis -2.5488e-015 -90 -90   XYZ
    dof rx rz
    limits (-90.0 90.0)
           (-45.0 45.0)
  end
  begin
     id 29
     name rfingers
     direction -1 -4.48914e-011 8.00621e-027   
     length 0.48353   
     axis -5.0975e-015 -90 -90   XYZ
    dof rx
    limits (0.0 90.0)
  end
  begin
     id 30
     name rthumb
     direction -0.707107 -6.34992e-011 0.707107   
     length 0.694255   
     axis -90 -45 4.48553e-014   XYZ
    dof rx rz
    limits (-45.0 45.0)
           (-45.0 45.0)
  end
:hierarchy
  begin
    root lhipjoint rhipjoint lowerback
    lhipjoint lfemur
    lfemur ltibia
    ltibia lfoot
    lfoot ltoes
    rhipjoint rfemur
    rfemur rtibia
    rtibia rfoot
    rfoot rtoes
    lowerback upperback
    upperback thorax
    thorax lowerneck lclavicle rclavicle
    lowerneck upperneck
    upperneck head
    lclavicle lhumerus
    lhumerus lradius
    lradius lwrist
    lwrist lhand lthumb
    lhand lfingers
    rclavicle rhumerus
    rhumerus rradius
    rradius rwrist
    rwrist rhand rthumb
    rhand rfingers
  end

#!OML:ASF E:\CV Data\Top Level 1\Subject 1\Session 1\player.ASF
:FULLY-SPECIFIED
:DEGREES
742
root 5.96922 17.1966 -8.9897 140.485 -84.6121 -139.537
lowerback 4.4278 2.67837 2.40579
upperback -0.467008 3.72464 1.18899
thorax -2.88636 1.82087 -0.375039
lowerneck -14.4337 14.5446 -2.25495
upperneck 19.7272 19.7204 3.70235
head 7.83211 9.51902 3.58621
rclavicle 3.29237e-016 5.71506e-015
rhumerus 135.546 145.492 73.9194
rradius 95.7875
rwrist -7.20075
rhand -29.6867 20.8071
rfingers 7.12502
rthumb -3.01486 -9.15135
lclavicle 3.29237e-016 5.71506e-015
lhumerus -44.1035 -38.8111 113.674
lradius 92.128
lwrist 29.1528
lhand -24.3601 16.3979
lfingers 7.12502
lthumb 2.12955 46.3671
rfemur -16.7977 10.9196 25.7953
rtibia 40.3023
rfoot -22.6781 -2.01257
rtoes 11.5979
lfemur -15.7468 2.33693 -15.2976
ltibia 37.2253
lfoot -18.2302 1.89883
ltoes 0.923982
743
root 5.95922 17.1977 -8.98495 143.243 -84.3786 -142.319
lowerback 4.37191 2.70715 2.40228
upperback -0.47365 3.76073 1.16769
thorax -2.85982 1.8392 -0.39447
lowerneck -14.4242 14.5952 -2.27174
upperneck 19.7606 19.7921 3.71355
head 7.83613 9.55174 3.59887
rclavicle 3.99588e-015 -1.07841e-014
rhumerus 135.431 145.483 73.8363
rradius 95.8267
rwrist -7.74548
rhand -29.5151 20.6731
rfingers 7.12502
rthumb -2.84919 -9.28757
lclavicle 3.99588e-015 -1.07841e-014
lhumerus -44.2475 -38.8248 113.764
lradius 92.1608
lwrist 29.2295
lhand -24.4894 16.4321
lfingers 7.12502
lthumb 2.00475 46.4024
rfemur -16.7597 11.082 25.7214
rtibia 40.3055
rfoot -22.6843 -1.85227
rtoes 11.6163
lfemur -15.5724 2.3988 -15.3891
ltibia 37.135
lfoot -18.217 2.18435
ltoes 0.898085
744
root 5.9497 17.1984 -8.98129 145.725 -84.1344 -144.816
lowerback 4.30785 2.73885 2.392
upperback -0.482221 3.80021 1.1486
thorax -2.83117 1.85937 -0.407648
lowerneck -14.4181 14.6413 -2.28986
upperneck 19.7973 19.8576 3.72812
head 7.84147 9.58159 3.61265
rclavicle -7.35503e-015 9.93923e-017
rhumerus 135.327 145.459 73.7702
rradius 95.8597
rwrist -8.20015
rhand -29.352 20.5843
rfingers 7.12502
rthumb -2.69167 -9.37849
lclavicle -7.35503e-015 9.93923e-017
lhumerus -44.3854 -38.8294 113.844
lradius 92.1927
lwrist 29.3189
lhand -24.6075 16.5336
lfingers 7.12502
lthumb 1.89069 46.5049
rfemur -16.7379 11.245 25.6562
rtibia 40.3201
rfoot -22.6908 -1.70494
rtoes 11.6159
lfemur -15.4151 2.48188 -15.4674
ltibia 37.052
lfoot -18.2103 2.42985
ltoes 0.888785
745
root 5.94076 17.199 -8.97872 148.006 -83.8847 -147.101
lowerback 4.24033 2.77114 2.36895
upperback -0.497087 3.83995 1.13015
thorax -2.80793 1.8798 -0.413057
lowerneck -14.412 14.6856 -2.3077
upperneck 19.8384 19.9194 3.74759
head 7.84785 9.6101 3.62779
rclavicle -2.5345e-015 1.62506e-014
rhumerus 135.225 145.423 73.7166
rradius 95.8796
rwrist -8.4878
rhand -29.214 20.5336
rfingers 7.12502
rthumb -2.55836 -9.43079
lclavicle -2.5345e-015 1.62506e-014
lhumerus -44.5226 -38.8181 113.918
lradius 92.2202
lwrist 29.4091
lhand -24.6734 16.6662
lfingers 7.12502
lthumb 1.82705 46.6381
rfemur -16.7337 11.4079 25.5915
rtibia 40.344
rfoot -22.6964 -1.55612
rtoes 11.6556
lfemur -15.2775 2.59315 -15.5386
ltibia 36.9774
lfoot -18.2109 2.63113
ltoes 0.877522
746
root 5.93216 17.1992 -8.97693 150.098 -83.6316 -149.197
lowerback 4.17312 2.80303 2.3408
upperback -0.515374 3.87905 1.11011
thorax -2.78863 1.89991 -0.417276
lowerneck -14.4058 14.7281 -2.32429
upperneck 19.8829 19.9778 3.77102
head 7.85514 9.6373 3.64386
rclavicle 5.62809e-015 -9.88954e-015
rhumerus 135.128 145.384 73.6746
rradius 95.8832
rwrist -8.58102
rhand -29.0999 20.5185
rfingers 7.12502
rthumb -2.44823 -9.44717
lclavicle 5.62809e-015 -9.88954e-015
lhumerus -44.6586 -38.7979 113.983
lradius 92.2434
lwrist 29.4943
lhand -24.5208 16.7779
lfingers 7.12502
lthumb 1.97439 46.7485
rfemur -16.7376 11.5657 25.5257
rtibia 40.3748
rfoot -22.707 -1.40296
rtoes 11.7325
lfemur -15.1513 2.72808 -15.6051
ltibia 36.9117
lfoot -18.2188 2.79012
ltoes 0.8834
